<svg xmlns="http://www.w3.org/2000/svg" xmlns:xlink="http://www.w3.org/1999/xlink" width="233" zoomAndPan="magnify" viewBox="0 0 174.75 174.749997" height="233" preserveAspectRatio="xMidYMid meet" version="1.0"><defs><clipPath id="a6c502efde"><path d="M 63 23 L 111 23 L 111 100 L 63 100 Z M 63 23 " clip-rule="nonzero"/></clipPath><clipPath id="e490a3c199"><path d="M 87.226562 0 L 174.589844 87.363281 L 87.226562 174.722656 L -0.132812 87.363281 Z M 87.226562 0 " clip-rule="nonzero"/></clipPath><clipPath id="192093177c"><path d="M 87.226562 0 L 174.589844 87.363281 L 87.226562 174.722656 L -0.132812 87.363281 Z M 87.226562 0 " clip-rule="nonzero"/></clipPath><clipPath id="f36de937ab"><path d="M 63 75 L 111 75 L 111 151 L 63 151 Z M 63 75 " clip-rule="nonzero"/></clipPath><clipPath id="15e4bf3569"><path d="M 87.226562 0 L 174.589844 87.363281 L 87.226562 174.722656 L -0.132812 87.363281 Z M 87.226562 0 " clip-rule="nonzero"/></clipPath><clipPath id="5d23ac35a4"><path d="M 87.226562 0 L 174.589844 87.363281 L 87.226562 174.722656 L -0.132812 87.363281 Z M 87.226562 0 " clip-rule="nonzero"/></clipPath><clipPath id="3dc53e7953"><path d="M 23 63 L 100 63 L 100 111 L 23 111 Z M 23 63 " clip-rule="nonzero"/></clipPath><clipPath id="bd68467149"><path d="M 0 87.226562 L 87.363281 -0.132812 L 174.722656 87.226562 L 87.363281 174.589844 Z M 0 87.226562 " clip-rule="nonzero"/></clipPath><clipPath id="ab34c1ab20"><path d="M 0 87.226562 L 87.363281 -0.132812 L 174.722656 87.226562 L 87.363281 174.589844 Z M 0 87.226562 " clip-rule="nonzero"/></clipPath><clipPath id="93220b7efb"><path d="M 75 63 L 151 63 L 151 111 L 75 111 Z M 75 63 " clip-rule="nonzero"/></clipPath><clipPath id="f09d1fd36d"><path d="M 0 87.226562 L 87.363281 -0.132812 L 174.722656 87.226562 L 87.363281 174.589844 Z M 0 87.226562 " clip-rule="nonzero"/></clipPath><clipPath id="0495644301"><path d="M 0 87.226562 L 87.363281 -0.132812 L 174.722656 87.226562 L 87.363281 174.589844 Z M 0 87.226562 " clip-rule="nonzero"/></clipPath></defs><g clip-path="url(#a6c502efde)"><g clip-path="url(#e490a3c199)"><g clip-path="url(#192093177c)"><path fill="#ffffff" d="M 100.742188 94.769531 C 100.0625 92.617188 98.875 90.636719 97.25 89.011719 C 96.578125 88.339844 95.847656 87.742188 95.066406 87.226562 C 92.765625 88.753906 90.046875 89.585938 87.246094 89.585938 C 83.496094 89.585938 79.898438 88.09375 77.246094 85.441406 C 74.59375 82.789062 73.101562 79.191406 73.101562 75.4375 L 73.101562 47.148438 C 73.101562 43.398438 74.59375 39.800781 77.246094 37.148438 C 79.898438 34.496094 83.496094 33.003906 87.246094 33.003906 C 91 33.003906 94.597656 34.496094 97.25 37.148438 C 99.902344 39.800781 101.390625 43.398438 101.390625 47.148438 L 101.390625 75.4375 C 101.390625 76.890625 101.167969 78.320312 100.742188 79.683594 C 101.867188 80.46875 102.929688 81.359375 103.914062 82.34375 C 105.386719 83.8125 106.640625 85.457031 107.664062 87.226562 C 109.714844 83.671875 110.824219 79.613281 110.824219 75.4375 L 110.824219 47.148438 C 110.824219 40.898438 108.335938 34.902344 103.914062 30.480469 C 99.496094 26.058594 93.5 23.574219 87.246094 23.574219 C 80.996094 23.574219 75 26.058594 70.574219 30.480469 C 66.15625 34.902344 63.671875 40.898438 63.671875 47.148438 L 63.671875 75.4375 C 63.671875 81.691406 66.15625 87.6875 70.574219 92.109375 C 75 96.53125 80.996094 99.015625 87.246094 99.015625 C 92.105469 99.015625 96.808594 97.515625 100.742188 94.769531 Z M 100.742188 94.769531 " fill-opacity="1" fill-rule="evenodd"/></g></g></g><g clip-path="url(#f36de937ab)"><g clip-path="url(#15e4bf3569)"><g clip-path="url(#5d23ac35a4)"><path fill="#ffffff" d="M 73.753906 79.683594 C 74.429688 81.835938 75.617188 83.816406 77.246094 85.441406 C 77.917969 86.113281 78.648438 86.710938 79.425781 87.226562 C 81.726562 85.699219 84.445312 84.867188 87.25 84.867188 C 90.996094 84.867188 94.59375 86.359375 97.25 89.011719 C 99.898438 91.664062 101.394531 95.261719 101.394531 99.015625 L 101.394531 127.304688 C 101.394531 131.054688 99.898438 134.652344 97.25 137.304688 C 94.59375 139.957031 90.996094 141.449219 87.25 141.449219 C 83.496094 141.449219 79.898438 139.957031 77.246094 137.304688 C 74.59375 134.652344 73.105469 131.054688 73.105469 127.304688 L 73.105469 99.015625 C 73.105469 97.5625 73.328125 96.132812 73.753906 94.769531 C 72.628906 93.984375 71.5625 93.09375 70.578125 92.109375 C 69.105469 90.640625 67.851562 88.996094 66.828125 87.226562 C 64.777344 90.78125 63.675781 94.839844 63.675781 99.015625 L 63.675781 127.304688 C 63.675781 133.554688 66.15625 139.550781 70.578125 143.972656 C 75 148.394531 80.992188 150.878906 87.25 150.878906 C 93.5 150.878906 99.492188 148.394531 103.917969 143.972656 C 108.339844 139.550781 110.824219 133.554688 110.824219 127.304688 L 110.824219 99.015625 C 110.824219 92.761719 108.339844 86.765625 103.917969 82.34375 C 99.492188 77.921875 93.5 75.4375 87.25 75.4375 C 82.386719 75.4375 77.683594 76.9375 73.753906 79.683594 Z M 73.753906 79.683594 " fill-opacity="1" fill-rule="evenodd"/></g></g></g><g clip-path="url(#3dc53e7953)"><g clip-path="url(#bd68467149)"><g clip-path="url(#ab34c1ab20)"><path fill="#ffffff" d="M 94.769531 73.714844 C 92.617188 74.394531 90.636719 75.582031 89.011719 77.207031 C 88.339844 77.878906 87.742188 78.609375 87.226562 79.390625 C 88.753906 81.691406 89.585938 84.40625 89.585938 87.207031 C 89.585938 90.960938 88.09375 94.558594 85.441406 97.207031 C 82.789062 99.863281 79.191406 101.351562 75.4375 101.351562 L 47.148438 101.351562 C 43.398438 101.351562 39.800781 99.863281 37.148438 97.207031 C 34.496094 94.558594 33.003906 90.960938 33.003906 87.207031 C 33.003906 83.457031 34.496094 79.859375 37.148438 77.207031 C 39.800781 74.554688 43.398438 73.0625 47.148438 73.0625 L 75.4375 73.0625 C 76.890625 73.0625 78.320312 73.289062 79.683594 73.714844 C 80.46875 72.585938 81.359375 71.527344 82.34375 70.542969 C 83.8125 69.070312 85.457031 67.816406 87.226562 66.792969 C 83.671875 64.742188 79.613281 63.632812 75.4375 63.632812 L 47.148438 63.632812 C 40.898438 63.632812 34.902344 66.117188 30.480469 70.542969 C 26.058594 74.960938 23.574219 80.957031 23.574219 87.207031 C 23.574219 93.460938 26.058594 99.457031 30.480469 103.878906 C 34.902344 108.296875 40.898438 110.785156 47.148438 110.785156 L 75.4375 110.785156 C 81.691406 110.785156 87.6875 108.296875 92.109375 103.878906 C 96.53125 99.457031 99.015625 93.460938 99.015625 87.207031 C 99.015625 82.351562 97.515625 77.648438 94.769531 73.714844 Z M 94.769531 73.714844 " fill-opacity="1" fill-rule="evenodd"/></g></g></g><g clip-path="url(#93220b7efb)"><g clip-path="url(#f09d1fd36d)"><g clip-path="url(#0495644301)"><path fill="#ffffff" d="M 79.683594 100.699219 C 81.835938 100.027344 83.816406 98.839844 85.441406 97.210938 C 86.113281 96.539062 86.710938 95.808594 87.226562 95.027344 C 85.699219 92.726562 84.867188 90.011719 84.867188 87.207031 C 84.867188 83.457031 86.359375 79.859375 89.011719 77.207031 C 91.664062 74.558594 95.261719 73.0625 99.015625 73.0625 L 127.304688 73.0625 C 131.054688 73.0625 134.652344 74.558594 137.304688 77.207031 C 139.957031 79.859375 141.449219 83.457031 141.449219 87.207031 C 141.449219 90.960938 139.957031 94.558594 137.304688 97.210938 C 134.652344 99.863281 131.054688 101.351562 127.304688 101.351562 L 99.015625 101.351562 C 97.5625 101.351562 96.132812 101.128906 94.769531 100.699219 C 93.984375 101.828125 93.09375 102.894531 92.109375 103.878906 C 90.640625 105.351562 88.996094 106.605469 87.226562 107.628906 C 90.78125 109.679688 94.839844 110.78125 99.015625 110.78125 L 127.304688 110.78125 C 133.554688 110.78125 139.550781 108.300781 143.972656 103.878906 C 148.394531 99.457031 150.878906 93.464844 150.878906 87.207031 C 150.878906 80.953125 148.394531 74.960938 143.972656 70.539062 C 139.550781 66.117188 133.554688 63.632812 127.304688 63.632812 L 99.015625 63.632812 C 92.761719 63.632812 86.765625 66.117188 82.34375 70.539062 C 77.921875 74.960938 75.4375 80.953125 75.4375 87.207031 C 75.4375 92.066406 76.9375 96.773438 79.683594 100.699219 Z M 79.683594 100.699219 " fill-opacity="1" fill-rule="evenodd"/></g></g></g></svg>