<svg xmlns="http://www.w3.org/2000/svg" xmlns:xlink="http://www.w3.org/1999/xlink" width="440" zoomAndPan="magnify" viewBox="0 0 330 717.000001" height="956" preserveAspectRatio="xMidYMid meet" version="1.0"><defs><clipPath id="d79f894996"><path d="M 141 145 L 189 145 L 189 222 L 141 222 Z M 141 145 " clip-rule="nonzero"/></clipPath><clipPath id="89c08ec8e5"><path d="M 165 122.160156 L 252.363281 209.527344 L 165 296.890625 L 77.632812 209.527344 Z M 165 122.160156 " clip-rule="nonzero"/></clipPath><clipPath id="4f86b3c7cf"><path d="M 165 122.160156 L 252.363281 209.527344 L 165 296.890625 L 77.632812 209.527344 Z M 165 122.160156 " clip-rule="nonzero"/></clipPath><clipPath id="77ddd250d0"><path d="M 141 197 L 189 197 L 189 274 L 141 274 Z M 141 197 " clip-rule="nonzero"/></clipPath><clipPath id="b825b5e345"><path d="M 165 122.160156 L 252.363281 209.527344 L 165 296.890625 L 77.632812 209.527344 Z M 165 122.160156 " clip-rule="nonzero"/></clipPath><clipPath id="c3085f4f6d"><path d="M 165 122.160156 L 252.363281 209.527344 L 165 296.890625 L 77.632812 209.527344 Z M 165 122.160156 " clip-rule="nonzero"/></clipPath><clipPath id="1381fe3a31"><path d="M 101 185 L 177 185 L 177 233 L 101 233 Z M 101 185 " clip-rule="nonzero"/></clipPath><clipPath id="dd82f7d4af"><path d="M 77.769531 209.390625 L 165.132812 122.027344 L 252.496094 209.390625 L 165.132812 296.757812 Z M 77.769531 209.390625 " clip-rule="nonzero"/></clipPath><clipPath id="fb56b0a2c2"><path d="M 77.769531 209.390625 L 165.132812 122.027344 L 252.496094 209.390625 L 165.132812 296.757812 Z M 77.769531 209.390625 " clip-rule="nonzero"/></clipPath><clipPath id="56c7e062b5"><path d="M 153 185 L 229 185 L 229 233 L 153 233 Z M 153 185 " clip-rule="nonzero"/></clipPath><clipPath id="6d42200a9f"><path d="M 77.769531 209.390625 L 165.132812 122.027344 L 252.496094 209.390625 L 165.132812 296.757812 Z M 77.769531 209.390625 " clip-rule="nonzero"/></clipPath><clipPath id="1ad9915713"><path d="M 77.769531 209.390625 L 165.132812 122.027344 L 252.496094 209.390625 L 165.132812 296.757812 Z M 77.769531 209.390625 " clip-rule="nonzero"/></clipPath><clipPath id="d7a80079fe"><path d="M 141 381 L 189 381 L 189 458 L 141 458 Z M 141 381 " clip-rule="nonzero"/></clipPath><clipPath id="eb548f07c0"><path d="M 164.996094 358.003906 L 252.378906 445.386719 L 164.996094 532.769531 L 77.613281 445.386719 Z M 164.996094 358.003906 " clip-rule="nonzero"/></clipPath><clipPath id="b4d98e4fc0"><path d="M 164.996094 358.003906 L 252.378906 445.386719 L 164.996094 532.769531 L 77.613281 445.386719 Z M 164.996094 358.003906 " clip-rule="nonzero"/></clipPath><clipPath id="24acebb99c"><path d="M 141 433 L 189 433 L 189 509 L 141 509 Z M 141 433 " clip-rule="nonzero"/></clipPath><clipPath id="f915b65642"><path d="M 164.996094 358.003906 L 252.378906 445.386719 L 164.996094 532.769531 L 77.613281 445.386719 Z M 164.996094 358.003906 " clip-rule="nonzero"/></clipPath><clipPath id="b7e3efeb32"><path d="M 164.996094 358.003906 L 252.378906 445.386719 L 164.996094 532.769531 L 77.613281 445.386719 Z M 164.996094 358.003906 " clip-rule="nonzero"/></clipPath><clipPath id="a5eff718dd"><path d="M 101 421 L 177 421 L 177 469 L 101 469 Z M 101 421 " clip-rule="nonzero"/></clipPath><clipPath id="a67cab52dc"><path d="M 77.769531 445.226562 L 165.152344 357.84375 L 252.535156 445.226562 L 165.152344 532.609375 Z M 77.769531 445.226562 " clip-rule="nonzero"/></clipPath><clipPath id="bc4da59356"><path d="M 77.769531 445.226562 L 165.152344 357.84375 L 252.535156 445.226562 L 165.152344 532.609375 Z M 77.769531 445.226562 " clip-rule="nonzero"/></clipPath><clipPath id="cc37c04241"><path d="M 153 421 L 229 421 L 229 469 L 153 469 Z M 153 421 " clip-rule="nonzero"/></clipPath><clipPath id="2baed0c780"><path d="M 77.769531 445.226562 L 165.152344 357.84375 L 252.535156 445.226562 L 165.152344 532.609375 Z M 77.769531 445.226562 " clip-rule="nonzero"/></clipPath><clipPath id="b225279df4"><path d="M 77.769531 445.226562 L 165.152344 357.84375 L 252.535156 445.226562 L 165.152344 532.609375 Z M 77.769531 445.226562 " clip-rule="nonzero"/></clipPath></defs><g clip-path="url(#d79f894996)"><g clip-path="url(#89c08ec8e5)"><g clip-path="url(#4f86b3c7cf)"><path fill="#ffffff" d="M 178.511719 216.933594 C 177.835938 214.78125 176.644531 212.800781 175.019531 211.175781 C 174.351562 210.503906 173.621094 209.910156 172.835938 209.390625 C 170.535156 210.917969 167.820312 211.75 165.019531 211.75 C 161.265625 211.75 157.667969 210.257812 155.019531 207.605469 C 152.363281 204.953125 150.875 201.355469 150.875 197.601562 L 150.875 169.3125 C 150.875 165.5625 152.363281 161.964844 155.019531 159.3125 C 157.667969 156.65625 161.265625 155.167969 165.019531 155.167969 C 168.773438 155.167969 172.371094 156.65625 175.019531 159.3125 C 177.675781 161.964844 179.164062 165.5625 179.164062 169.3125 L 179.164062 197.601562 C 179.164062 199.054688 178.9375 200.484375 178.511719 201.847656 C 179.640625 202.632812 180.703125 203.523438 181.6875 204.507812 C 183.15625 205.976562 184.414062 207.621094 185.433594 209.390625 C 187.488281 205.835938 188.59375 201.777344 188.59375 197.601562 L 188.59375 169.3125 C 188.59375 163.058594 186.109375 157.0625 181.6875 152.640625 C 177.269531 148.222656 171.269531 145.738281 165.019531 145.738281 C 158.765625 145.738281 152.769531 148.222656 148.347656 152.640625 C 143.929688 157.0625 141.445312 163.058594 141.445312 169.3125 L 141.445312 197.601562 C 141.445312 203.855469 143.929688 209.851562 148.347656 214.273438 C 152.769531 218.695312 158.765625 221.179688 165.019531 221.179688 C 169.875 221.179688 174.582031 219.679688 178.511719 216.933594 Z M 178.511719 216.933594 " fill-opacity="1" fill-rule="evenodd"/></g></g></g><g clip-path="url(#77ddd250d0)"><g clip-path="url(#b825b5e345)"><g clip-path="url(#c3085f4f6d)"><path fill="#ffffff" d="M 151.527344 201.847656 C 152.199219 204 153.386719 205.980469 155.015625 207.605469 C 155.691406 208.277344 156.421875 208.875 157.199219 209.390625 C 159.5 207.863281 162.214844 207.035156 165.019531 207.035156 C 168.769531 207.035156 172.367188 208.523438 175.019531 211.175781 C 177.671875 213.828125 179.164062 217.425781 179.164062 221.179688 L 179.164062 249.46875 C 179.164062 253.222656 177.671875 256.820312 175.019531 259.472656 C 172.367188 262.125 168.769531 263.613281 165.019531 263.613281 C 161.265625 263.613281 157.667969 262.125 155.015625 259.472656 C 152.367188 256.820312 150.875 253.222656 150.875 249.46875 L 150.875 221.179688 C 150.875 219.726562 151.097656 218.296875 151.527344 216.933594 C 150.398438 216.148438 149.332031 215.257812 148.347656 214.273438 C 146.878906 212.804688 145.621094 211.160156 144.601562 209.390625 C 142.546875 212.945312 141.445312 217.003906 141.445312 221.179688 L 141.445312 249.46875 C 141.445312 255.722656 143.925781 261.71875 148.347656 266.140625 C 152.769531 270.5625 158.765625 273.042969 165.019531 273.042969 C 171.273438 273.042969 177.265625 270.5625 181.6875 266.140625 C 186.109375 261.71875 188.597656 255.722656 188.597656 249.46875 L 188.597656 221.179688 C 188.597656 214.925781 186.109375 208.929688 181.6875 204.507812 C 177.265625 200.085938 171.273438 197.601562 165.019531 197.601562 C 160.160156 197.601562 155.453125 199.101562 151.527344 201.847656 Z M 151.527344 201.847656 " fill-opacity="1" fill-rule="evenodd"/></g></g></g><g clip-path="url(#1381fe3a31)"><g clip-path="url(#dd82f7d4af)"><g clip-path="url(#fb56b0a2c2)"><path fill="#ffffff" d="M 172.542969 195.878906 C 170.390625 196.558594 168.410156 197.746094 166.785156 199.371094 C 166.113281 200.042969 165.515625 200.773438 164.996094 201.554688 C 166.523438 203.855469 167.355469 206.574219 167.355469 209.375 C 167.355469 213.125 165.863281 216.722656 163.210938 219.375 C 160.558594 222.027344 156.960938 223.519531 153.210938 223.519531 L 124.917969 223.519531 C 121.167969 223.519531 117.570312 222.027344 114.917969 219.375 C 112.265625 216.722656 110.773438 213.125 110.773438 209.375 C 110.773438 205.621094 112.265625 202.023438 114.917969 199.371094 C 117.570312 196.71875 121.167969 195.226562 124.917969 195.226562 L 153.210938 195.226562 C 154.664062 195.226562 156.09375 195.453125 157.453125 195.878906 C 158.242188 194.75 159.128906 193.691406 160.117188 192.707031 C 161.585938 191.234375 163.230469 189.980469 164.996094 188.957031 C 161.445312 186.90625 157.382812 185.796875 153.210938 185.796875 L 124.917969 185.796875 C 118.667969 185.796875 112.671875 188.28125 108.25 192.707031 C 103.828125 197.125 101.34375 203.121094 101.34375 209.375 C 101.34375 215.625 103.828125 221.621094 108.25 226.046875 C 112.671875 230.464844 118.667969 232.949219 124.917969 232.949219 L 153.210938 232.949219 C 159.464844 232.949219 165.460938 230.464844 169.878906 226.046875 C 174.300781 221.621094 176.785156 215.625 176.785156 209.375 C 176.785156 204.515625 175.285156 199.8125 172.542969 195.878906 Z M 172.542969 195.878906 " fill-opacity="1" fill-rule="evenodd"/></g></g></g><g clip-path="url(#56c7e062b5)"><g clip-path="url(#6d42200a9f)"><g clip-path="url(#1ad9915713)"><path fill="#ffffff" d="M 157.453125 222.867188 C 159.605469 222.191406 161.585938 221.003906 163.210938 219.375 C 163.882812 218.703125 164.480469 217.972656 164.996094 217.195312 C 163.472656 214.894531 162.640625 212.175781 162.640625 209.371094 C 162.640625 205.621094 164.128906 202.023438 166.785156 199.371094 C 169.4375 196.722656 173.035156 195.226562 176.785156 195.226562 L 205.074219 195.226562 C 208.828125 195.226562 212.425781 196.722656 215.078125 199.371094 C 217.730469 202.023438 219.222656 205.621094 219.222656 209.371094 C 219.222656 213.125 217.730469 216.722656 215.078125 219.375 C 212.425781 222.027344 208.828125 223.515625 205.074219 223.515625 L 176.785156 223.515625 C 175.332031 223.515625 173.902344 223.296875 172.542969 222.867188 C 171.753906 223.992188 170.867188 225.058594 169.878906 226.042969 C 168.410156 227.515625 166.765625 228.769531 164.996094 229.792969 C 168.550781 231.84375 172.609375 232.945312 176.785156 232.945312 L 205.074219 232.945312 C 211.328125 232.945312 217.324219 230.464844 221.746094 226.042969 C 226.167969 221.621094 228.652344 215.628906 228.652344 209.371094 C 228.652344 203.121094 226.167969 197.125 221.746094 192.703125 C 217.324219 188.28125 211.328125 185.796875 205.074219 185.796875 L 176.785156 185.796875 C 170.53125 185.796875 164.535156 188.28125 160.113281 192.703125 C 155.695312 197.125 153.210938 203.121094 153.210938 209.371094 C 153.210938 214.234375 154.710938 218.9375 157.453125 222.867188 Z M 157.453125 222.867188 " fill-opacity="1" fill-rule="evenodd"/></g></g></g><g clip-path="url(#d7a80079fe)"><g clip-path="url(#eb548f07c0)"><g clip-path="url(#b4d98e4fc0)"><path fill="#353535" d="M 178.507812 452.769531 C 177.828125 450.617188 176.640625 448.636719 175.015625 447.011719 C 174.34375 446.339844 173.613281 445.742188 172.832031 445.226562 C 170.53125 446.753906 167.816406 447.582031 165.015625 447.582031 C 161.261719 447.582031 157.664062 446.09375 155.015625 443.441406 C 152.359375 440.789062 150.871094 437.191406 150.871094 433.441406 L 150.871094 405.152344 C 150.871094 401.398438 152.359375 397.800781 155.015625 395.148438 C 157.664062 392.496094 161.261719 391.007812 165.015625 391.007812 C 168.769531 391.007812 172.367188 392.496094 175.015625 395.148438 C 177.667969 397.800781 179.160156 401.398438 179.160156 405.152344 L 179.160156 433.441406 C 179.160156 434.894531 178.933594 436.320312 178.507812 437.683594 C 179.636719 438.46875 180.695312 439.359375 181.683594 440.34375 C 183.152344 441.8125 184.40625 443.457031 185.429688 445.226562 C 187.480469 441.671875 188.589844 437.613281 188.589844 433.441406 L 188.589844 405.152344 C 188.589844 398.898438 186.105469 392.902344 181.683594 388.480469 C 177.265625 384.0625 171.265625 381.578125 165.015625 381.578125 C 158.761719 381.578125 152.765625 384.0625 148.34375 388.480469 C 143.925781 392.902344 141.441406 398.898438 141.441406 405.152344 L 141.441406 433.441406 C 141.441406 439.691406 143.925781 445.6875 148.34375 450.109375 C 152.765625 454.53125 158.761719 457.011719 165.015625 457.011719 C 169.871094 457.011719 174.578125 455.515625 178.507812 452.769531 Z M 178.507812 452.769531 " fill-opacity="1" fill-rule="evenodd"/></g></g></g><g clip-path="url(#24acebb99c)"><g clip-path="url(#f915b65642)"><g clip-path="url(#b7e3efeb32)"><path fill="#353535" d="M 151.523438 437.683594 C 152.195312 439.835938 153.386719 441.816406 155.011719 443.441406 C 155.6875 444.113281 156.417969 444.710938 157.195312 445.226562 C 159.496094 443.699219 162.210938 442.867188 165.015625 442.867188 C 168.765625 442.867188 172.363281 444.359375 175.015625 447.011719 C 177.667969 449.664062 179.160156 453.261719 179.160156 457.011719 L 179.160156 485.300781 C 179.160156 489.054688 177.667969 492.652344 175.015625 495.304688 C 172.363281 497.957031 168.765625 499.445312 165.015625 499.445312 C 161.265625 499.445312 157.667969 497.957031 155.011719 495.304688 C 152.363281 492.652344 150.871094 489.054688 150.871094 485.300781 L 150.871094 457.011719 C 150.871094 455.558594 151.09375 454.128906 151.523438 452.769531 C 150.394531 451.984375 149.332031 451.09375 148.34375 450.109375 C 146.875 448.640625 145.621094 446.996094 144.597656 445.226562 C 142.546875 448.777344 141.441406 452.839844 141.441406 457.011719 L 141.441406 485.300781 C 141.441406 491.554688 143.921875 497.550781 148.34375 501.972656 C 152.769531 506.390625 158.761719 508.875 165.015625 508.875 C 171.269531 508.875 177.261719 506.390625 181.683594 501.972656 C 186.105469 497.550781 188.589844 491.554688 188.589844 485.300781 L 188.589844 457.011719 C 188.589844 450.761719 186.105469 444.765625 181.683594 440.34375 C 177.261719 435.921875 171.269531 433.4375 165.015625 433.4375 C 160.15625 433.4375 155.449219 434.9375 151.523438 437.683594 Z M 151.523438 437.683594 " fill-opacity="1" fill-rule="evenodd"/></g></g></g><g clip-path="url(#a5eff718dd)"><g clip-path="url(#a67cab52dc)"><g clip-path="url(#bc4da59356)"><path fill="#353535" d="M 172.539062 431.714844 C 170.386719 432.394531 168.40625 433.582031 166.78125 435.207031 C 166.109375 435.878906 165.511719 436.609375 164.992188 437.390625 C 166.519531 439.691406 167.351562 442.40625 167.351562 445.207031 C 167.351562 448.960938 165.859375 452.558594 163.207031 455.207031 C 160.554688 457.863281 156.957031 459.351562 153.207031 459.351562 L 124.917969 459.351562 C 121.167969 459.351562 117.570312 457.863281 114.917969 455.207031 C 112.265625 452.558594 110.773438 448.960938 110.773438 445.207031 C 110.773438 441.457031 112.265625 437.859375 114.917969 435.207031 C 117.570312 432.554688 121.167969 431.0625 124.917969 431.0625 L 153.207031 431.0625 C 154.660156 431.0625 156.089844 431.289062 157.449219 431.714844 C 158.238281 430.585938 159.125 429.527344 160.113281 428.542969 C 161.582031 427.070312 163.226562 425.816406 164.992188 424.792969 C 161.441406 422.742188 157.382812 421.632812 153.207031 421.632812 L 124.917969 421.632812 C 118.664062 421.632812 112.671875 424.121094 108.25 428.542969 C 103.828125 432.960938 101.34375 438.957031 101.34375 445.207031 C 101.34375 451.460938 103.828125 457.457031 108.25 461.878906 C 112.671875 466.296875 118.664062 468.78125 124.917969 468.78125 L 153.207031 468.78125 C 159.460938 468.78125 165.457031 466.296875 169.875 461.878906 C 174.296875 457.457031 176.78125 451.460938 176.78125 445.207031 C 176.78125 440.351562 175.28125 435.648438 172.539062 431.714844 Z M 172.539062 431.714844 " fill-opacity="1" fill-rule="evenodd"/></g></g></g><g clip-path="url(#cc37c04241)"><g clip-path="url(#2baed0c780)"><g clip-path="url(#b225279df4)"><path fill="#353535" d="M 157.449219 458.699219 C 159.601562 458.027344 161.582031 456.839844 163.207031 455.210938 C 163.878906 454.539062 164.476562 453.804688 164.992188 453.027344 C 163.46875 450.726562 162.636719 448.011719 162.636719 445.207031 C 162.636719 441.457031 164.125 437.859375 166.777344 435.207031 C 169.429688 432.558594 173.03125 431.0625 176.78125 431.0625 L 205.070312 431.0625 C 208.820312 431.0625 212.417969 432.558594 215.070312 435.207031 C 217.722656 437.859375 219.214844 441.457031 219.214844 445.207031 C 219.214844 448.960938 217.722656 452.558594 215.070312 455.210938 C 212.417969 457.859375 208.820312 459.351562 205.070312 459.351562 L 176.78125 459.351562 C 175.328125 459.351562 173.898438 459.128906 172.539062 458.699219 C 171.75 459.828125 170.863281 460.894531 169.875 461.878906 C 168.40625 463.347656 166.761719 464.601562 164.992188 465.625 C 168.546875 467.675781 172.605469 468.78125 176.78125 468.78125 L 205.070312 468.78125 C 211.320312 468.78125 217.316406 466.300781 221.738281 461.878906 C 226.160156 457.457031 228.644531 451.464844 228.644531 445.207031 C 228.644531 438.953125 226.160156 432.960938 221.738281 428.539062 C 217.316406 424.117188 211.320312 421.632812 205.070312 421.632812 L 176.78125 421.632812 C 170.527344 421.632812 164.53125 424.117188 160.113281 428.539062 C 155.691406 432.960938 153.207031 438.953125 153.207031 445.207031 C 153.207031 450.066406 154.707031 454.773438 157.449219 458.699219 Z M 157.449219 458.699219 " fill-opacity="1" fill-rule="evenodd"/></g></g></g></svg>